<?xml version="1.0" standalone="no"?>
<!DOCTYPE svg PUBLIC "-//W3C//DTD SVG 20010904//EN"
 "http://www.w3.org/TR/2001/REC-SVG-20010904/DTD/svg10.dtd">
<svg version="1.0" xmlns="http://www.w3.org/2000/svg"
 width="363.000000pt" height="363.000000pt" viewBox="0 0 363.000000 363.000000"
 preserveAspectRatio="xMidYMid meet">
<metadata>
Created by potrace 1.11, written by Peter Selinger 2001-2013
</metadata>
<g transform="translate(0.000000,363.000000) scale(0.100000,-0.100000)"
fill="#000000" stroke="none">
<path d="M122 3507 l-123 -123 3 -77 3 -77 200 200 200 200 -80 0 -80 0 -123
-123z"/>
<path d="M317 3312 l-318 -318 3 -72 3 -72 390 390 390 390 -75 0 -75 0 -318
-318z"/>
<path d="M507 3122 l-508 -508 3 -77 3 -77 585 585 585 585 -80 0 -80 0 -508
-508z"/>
<path d="M697 2932 l-698 -698 3 -77 3 -77 775 775 775 775 -80 0 -80 0 -698
-698z"/>
<path d="M892 2737 l-893 -893 3 -77 3 -77 970 970 970 970 -80 0 -80 0 -893
-893z"/>
<path d="M1082 2547 l-1083 -1083 3 -77 3 -77 1160 1160 1160 1160 -80 0 -80
0 -1083 -1083z"/>
<path d="M1277 2352 l-1278 -1278 3 -72 3 -72 1350 1350 1350 1350 -75 0 -75
0 -1278 -1278z"/>
<path d="M1467 2162 l-1468 -1468 3 -77 3 -77 1545 1545 1545 1545 -80 0 -80
0 -1468 -1468z"/>
<path d="M1657 1972 l-1658 -1658 3 -77 3 -77 1735 1735 1735 1735 -80 0 -80
0 -1658 -1658z"/>
<path d="M1850 1775 l-1775 -1775 80 0 80 0 1698 1698 1698 1698 -3 77 -3 77
-1775 -1775z"/>
<path d="M2040 1585 l-1585 -1585 80 0 80 0 1508 1508 1508 1508 -3 77 -3 77
-1585 -1585z"/>
<path d="M2235 1390 l-1390 -1390 75 0 75 0 1318 1318 1318 1318 -3 72 -3 72
-1390 -1390z"/>
<path d="M2425 1200 l-1200 -1200 80 0 80 0 1123 1123 1123 1123 -3 77 -3 77
-1200 -1200z"/>
<path d="M2615 1010 l-1010 -1010 80 0 80 0 933 933 933 933 -3 77 -3 77
-1010 -1010z"/>
<path d="M2810 815 l-815 -815 80 0 80 0 738 738 738 738 -3 77 -3 77 -815
-815z"/>
<path d="M3000 625 l-625 -625 80 0 80 0 548 548 548 548 -3 77 -3 77 -625
-625z"/>
<path d="M3195 430 l-430 -430 75 0 75 0 358 358 358 358 -3 72 -3 72 -430
-430z"/>
<path d="M3385 240 l-240 -240 80 0 80 0 163 163 163 163 -3 77 -3 77 -240
-240z"/>
<path d="M3590 35 l-34 -35 37 0 c36 0 37 1 37 35 0 19 -1 35 -3 35 -2 0 -18
-16 -37 -35z"/>
</g>
</svg>
